<?xml version="1.0" encoding="UTF-8"?>
<!--Generator: Apple Native CoreSVG 232.5-->
<!DOCTYPE svg
PUBLIC "-//W3C//DTD SVG 1.1//EN"
       "http://www.w3.org/Graphics/SVG/1.1/DTD/svg11.dtd">
<svg version="1.1" xmlns="http://www.w3.org/2000/svg" xmlns:xlink="http://www.w3.org/1999/xlink" width="3300" height="2200">
 <!--glyph: "", point size: 100.0, font version: "19.2d2e1", template writer version: "128"-->
 <style>.monochrome-0 {-sfsymbols-variable-threshold:0.0;-sfsymbols-motion-group:1}
.monochrome-1 {-sfsymbols-variable-threshold:0.51;-sfsymbols-motion-group:0}

.multicolor-0:systemOrangeColor {-sfsymbols-variable-threshold:0.0;-sfsymbols-motion-group:1}
.multicolor-1:systemYellowColor {-sfsymbols-variable-threshold:0.51;-sfsymbols-motion-group:0}

.hierarchical-0:secondary {-sfsymbols-variable-threshold:0.0;-sfsymbols-motion-group:1}
.hierarchical-1:primary {-sfsymbols-variable-threshold:0.51;-sfsymbols-motion-group:0}

.SFSymbolsPreviewWireframe {fill:none;opacity:1.0;stroke:black;stroke-width:0.5}
</style>
 <g id="Notes">
  <rect height="2200" id="artboard" style="fill:white;opacity:1" width="3300" x="0" y="0"/>
  <line style="fill:none;stroke:black;opacity:1;stroke-width:0.5;" x1="263" x2="3036" y1="292" y2="292"/>
  <text style="stroke:none;fill:black;font-family:sans-serif;font-size:13;font-weight:bold;" transform="matrix(1 0 0 1 263 322)">Weight/Scale Variations</text>
  <text style="stroke:none;fill:black;font-family:sans-serif;font-size:13;text-anchor:middle;" transform="matrix(1 0 0 1 559.711 322)">Ultralight</text>
  <text style="stroke:none;fill:black;font-family:sans-serif;font-size:13;text-anchor:middle;" transform="matrix(1 0 0 1 856.422 322)">Thin</text>
  <text style="stroke:none;fill:black;font-family:sans-serif;font-size:13;text-anchor:middle;" transform="matrix(1 0 0 1 1153.13 322)">Light</text>
  <text style="stroke:none;fill:black;font-family:sans-serif;font-size:13;text-anchor:middle;" transform="matrix(1 0 0 1 1449.84 322)">Regular</text>
  <text style="stroke:none;fill:black;font-family:sans-serif;font-size:13;text-anchor:middle;" transform="matrix(1 0 0 1 1746.56 322)">Medium</text>
  <text style="stroke:none;fill:black;font-family:sans-serif;font-size:13;text-anchor:middle;" transform="matrix(1 0 0 1 2043.27 322)">Semibold</text>
  <text style="stroke:none;fill:black;font-family:sans-serif;font-size:13;text-anchor:middle;" transform="matrix(1 0 0 1 2339.98 322)">Bold</text>
  <text style="stroke:none;fill:black;font-family:sans-serif;font-size:13;text-anchor:middle;" transform="matrix(1 0 0 1 2636.69 322)">Heavy</text>
  <text style="stroke:none;fill:black;font-family:sans-serif;font-size:13;text-anchor:middle;" transform="matrix(1 0 0 1 2933.4 322)">Black</text>
  <line style="fill:none;stroke:black;opacity:1;stroke-width:0.5;" x1="263" x2="3036" y1="1903" y2="1903"/>
  <g transform="matrix(0.2 0 0 0.2 263 1933)">
   <path d="m46.2402 4.15039c21.5332 0 39.4531-17.8711 39.4531-39.4043s-17.9688-39.4043-39.502-39.4043c-21.4844 0-39.3555 17.8711-39.3555 39.4043s17.9199 39.4043 39.4043 39.4043Zm0-7.42188c-17.7246 0-31.8848-14.209-31.8848-31.9824s14.1113-31.9824 31.8359-31.9824c17.7734 0 32.0312 14.209 32.0312 31.9824s-14.209 31.9824-31.9824 31.9824Zm-17.9688-31.9824c0 2.14844 1.51367 3.61328 3.75977 3.61328h10.498v10.5957c0 2.19727 1.46484 3.71094 3.61328 3.71094 2.24609 0 3.71094-1.51367 3.71094-3.71094v-10.5957h10.5957c2.19727 0 3.71094-1.46484 3.71094-3.61328 0-2.19727-1.51367-3.71094-3.71094-3.71094h-10.5957v-10.5469c0-2.24609-1.46484-3.75977-3.71094-3.75977-2.14844 0-3.61328 1.51367-3.61328 3.75977v10.5469h-10.498c-2.24609 0-3.75977 1.51367-3.75977 3.71094Z"/>
  </g>
  <g transform="matrix(0.2 0 0 0.2 281.506 1933)">
   <path d="m58.5449 14.5508c27.2461 0 49.8047-22.6074 49.8047-49.8047 0-27.2461-22.6074-49.8047-49.8535-49.8047-27.1973 0-49.7559 22.5586-49.7559 49.8047 0 27.1973 22.6074 49.8047 49.8047 49.8047Zm0-8.30078c-23.0469 0-41.4551-18.457-41.4551-41.5039s18.3594-41.5039 41.4062-41.5039 41.5527 18.457 41.5527 41.5039-18.457 41.5039-41.5039 41.5039Zm-22.6562-41.5039c0 2.39258 1.66016 4.00391 4.15039 4.00391h14.3555v14.4043c0 2.44141 1.66016 4.15039 4.05273 4.15039 2.44141 0 4.15039-1.66016 4.15039-4.15039v-14.4043h14.4043c2.44141 0 4.15039-1.61133 4.15039-4.00391 0-2.44141-1.70898-4.15039-4.15039-4.15039h-14.4043v-14.3555c0-2.49023-1.70898-4.19922-4.15039-4.19922-2.39258 0-4.05273 1.70898-4.05273 4.19922v14.3555h-14.3555c-2.49023 0-4.15039 1.70898-4.15039 4.15039Z"/>
  </g>
  <g transform="matrix(0.2 0 0 0.2 304.924 1933)">
   <path d="m74.8535 28.3203c34.8145 0 63.623-28.8086 63.623-63.5742 0-34.8145-28.8574-63.623-63.6719-63.623-34.7656 0-63.5254 28.8086-63.5254 63.623 0 34.7656 28.8086 63.5742 63.5742 63.5742Zm0-9.08203c-30.1758 0-54.4434-24.3164-54.4434-54.4922 0-30.2246 24.2188-54.4922 54.3945-54.4922 30.2246 0 54.541 24.2676 54.541 54.4922 0 30.1758-24.2676 54.4922-54.4922 54.4922Zm-28.8574-54.4922c0 2.58789 1.85547 4.39453 4.58984 4.39453h19.7266v19.7754c0 2.68555 1.85547 4.58984 4.44336 4.58984 2.68555 0 4.54102-1.85547 4.54102-4.58984v-19.7754h19.7754c2.68555 0 4.58984-1.80664 4.58984-4.39453 0-2.73438-1.85547-4.58984-4.58984-4.58984h-19.7754v-19.7266c0-2.73438-1.85547-4.63867-4.54102-4.63867-2.58789 0-4.44336 1.9043-4.44336 4.63867v19.7266h-19.7266c-2.73438 0-4.58984 1.85547-4.58984 4.58984Z"/>
  </g>
  <text style="stroke:none;fill:black;font-family:sans-serif;font-size:13;font-weight:bold;" transform="matrix(1 0 0 1 263 1953)">Design Variations</text>
  <text style="stroke:none;fill:black;font-family:sans-serif;font-size:13;" transform="matrix(1 0 0 1 263 1971)">Symbols are supported in up to nine weights and three scales.</text>
  <text style="stroke:none;fill:black;font-family:sans-serif;font-size:13;" transform="matrix(1 0 0 1 263 1989)">For optimal layout with text and other symbols, vertically align</text>
  <text style="stroke:none;fill:black;font-family:sans-serif;font-size:13;" transform="matrix(1 0 0 1 263 2007)">symbols with the adjacent text.</text>
  <line style="fill:none;stroke:#00AEEF;stroke-width:0.5;opacity:1.0;" x1="776" x2="776" y1="1919" y2="1933"/>
  <g transform="matrix(0.2 0 0 0.2 776 1933)">
   <path d="m16.5527 0.78125c2.58789 0 3.85742-0.976562 4.78516-3.71094l6.29883-17.2363h28.8086l6.29883 17.2363c0.927734 2.73438 2.19727 3.71094 4.73633 3.71094 2.58789 0 4.24805-1.5625 4.24805-4.00391 0-0.830078-0.146484-1.61133-0.537109-2.63672l-22.9004-60.9863c-1.12305-2.97852-3.125-4.49219-6.25-4.49219-3.02734 0-5.07812 1.46484-6.15234 4.44336l-22.9004 61.084c-0.390625 1.02539-0.537109 1.80664-0.537109 2.63672 0 2.44141 1.5625 3.95508 4.10156 3.95508Zm13.4766-28.3691 11.8652-32.8613h0.244141l11.8652 32.8613Z"/>
  </g>
  <line style="fill:none;stroke:#00AEEF;stroke-width:0.5;opacity:1.0;" x1="792.836" x2="792.836" y1="1919" y2="1933"/>
  <text style="stroke:none;fill:black;font-family:sans-serif;font-size:13;font-weight:bold;" transform="matrix(1 0 0 1 776 1953)">Margins</text>
  <text style="stroke:none;fill:black;font-family:sans-serif;font-size:13;" transform="matrix(1 0 0 1 776 1971)">Leading and trailing margins on the left and right side of each symbol</text>
  <text style="stroke:none;fill:black;font-family:sans-serif;font-size:13;" transform="matrix(1 0 0 1 776 1989)">can be adjusted by modifying the x-location of the margin guidelines.</text>
  <text style="stroke:none;fill:black;font-family:sans-serif;font-size:13;" transform="matrix(1 0 0 1 776 2007)">Modifications are automatically applied proportionally to all</text>
  <text style="stroke:none;fill:black;font-family:sans-serif;font-size:13;" transform="matrix(1 0 0 1 776 2025)">scales and weights.</text>
  <g transform="matrix(0.2 0 0 0.2 1289 1933)">
   <path d="m14.209 9.32617 8.49609 8.54492c4.29688 4.3457 9.22852 4.05273 13.8672-1.07422l53.4668-58.9355-4.83398-4.88281-53.0762 58.3984c-1.75781 2.00195-3.41797 2.49023-5.76172 0.146484l-5.85938-5.81055c-2.34375-2.29492-1.80664-4.00391 0.195312-5.81055l57.373-54.0039-4.88281-4.83398-57.959 54.4434c-4.93164 4.58984-5.32227 9.47266-1.02539 13.8184Zm32.0801-90.9668c-2.09961 2.05078-2.24609 4.93164-1.07422 6.88477 1.17188 1.80664 3.4668 2.97852 6.68945 2.14844 7.32422-1.70898 14.9414-2.00195 22.0703 2.68555l-2.92969 7.27539c-1.70898 4.15039-0.830078 7.08008 1.85547 9.81445l11.4746 11.5723c2.44141 2.44141 4.49219 2.53906 7.32422 2.05078l5.32227-0.976562 3.32031 3.36914-0.195312 2.7832c-0.195312 2.49023 0.439453 4.39453 2.88086 6.78711l3.80859 3.71094c2.39258 2.39258 5.46875 2.53906 7.8125 0.195312l14.5508-14.5996c2.34375-2.34375 2.24609-5.32227-0.146484-7.71484l-3.85742-3.80859c-2.39258-2.39258-4.24805-3.17383-6.64062-2.97852l-2.88086 0.244141-3.22266-3.17383 1.2207-5.61523c0.634766-2.83203-0.146484-5.0293-3.07617-7.95898l-10.9863-10.9375c-16.6992-16.6016-38.8672-16.2109-53.3203-1.75781Zm7.4707 1.85547c12.1582-8.88672 28.6133-7.37305 39.7461 3.75977l12.1582 12.0605c1.17188 1.17188 1.36719 2.09961 1.02539 3.80859l-1.61133 7.42188 7.51953 7.42188 4.93164-0.292969c1.26953-0.0488281 1.66016 0.0488281 2.63672 1.02539l2.88086 2.88086-12.207 12.207-2.88086-2.88086c-0.976562-0.976562-1.12305-1.36719-1.07422-2.68555l0.341797-4.88281-7.4707-7.42188-7.61719 1.26953c-1.61133 0.341797-2.34375 0.195312-3.56445-0.976562l-10.0098-10.0098c-1.26953-1.17188-1.41602-2.00195-0.634766-3.85742l4.39453-10.4492c-7.8125-7.27539-17.9688-10.4004-28.125-7.42188-0.78125 0.195312-1.07422-0.439453-0.439453-0.976562Z"/>
  </g>
  <text style="stroke:none;fill:black;font-family:sans-serif;font-size:13;font-weight:bold;" transform="matrix(1 0 0 1 1289 1953)">Exporting</text>
  <text style="stroke:none;fill:black;font-family:sans-serif;font-size:13;" transform="matrix(1 0 0 1 1289 1971)">Symbols should be outlined when exporting to ensure the</text>
  <text style="stroke:none;fill:black;font-family:sans-serif;font-size:13;" transform="matrix(1 0 0 1 1289 1989)">design is preserved when submitting to Xcode.</text>
  <text id="template-version" style="stroke:none;fill:black;font-family:sans-serif;font-size:13;text-anchor:end;" transform="matrix(1 0 0 1 3036 1933)">Template v.5.0</text>
  <text style="stroke:none;fill:black;font-family:sans-serif;font-size:13;text-anchor:end;" transform="matrix(1 0 0 1 3036 1951)">Requires Xcode 15 or greater</text>
  <text id="descriptive-name" style="stroke:none;fill:black;font-family:sans-serif;font-size:13;text-anchor:end;" transform="matrix(1 0 0 1 3036 1969)">Generated from sound.fx</text>
  <text style="stroke:none;fill:black;font-family:sans-serif;font-size:13;text-anchor:end;" transform="matrix(1 0 0 1 3036 1987)">Typeset at 100.0 points</text>
  <text style="stroke:none;fill:black;font-family:sans-serif;font-size:13;" transform="matrix(1 0 0 1 263 726)">Small</text>
  <text style="stroke:none;fill:black;font-family:sans-serif;font-size:13;" transform="matrix(1 0 0 1 263 1156)">Medium</text>
  <text style="stroke:none;fill:black;font-family:sans-serif;font-size:13;" transform="matrix(1 0 0 1 263 1586)">Large</text>
 </g>
 <g id="Guides">
  <g id="H-reference" style="fill:#27AAE1;stroke:none;" transform="matrix(1 0 0 1 339 696)">
   <path d="M0.993654 0L3.63775 0L29.3281-67.1323L30.0303-67.1323L30.0303-70.459L28.1226-70.459ZM11.6885-24.4799L46.9815-24.4799L46.2315-26.7285L12.4385-26.7285ZM55.1196 0L57.7637 0L30.6382-70.459L29.4326-70.459L29.4326-67.1323Z"/>
  </g>
  <line id="Baseline-S" style="fill:none;stroke:#27AAE1;opacity:1;stroke-width:0.5;" x1="263" x2="3036" y1="696" y2="696"/>
  <line id="Capline-S" style="fill:none;stroke:#27AAE1;opacity:1;stroke-width:0.5;" x1="263" x2="3036" y1="625.541" y2="625.541"/>
  <g id="H-reference" style="fill:#27AAE1;stroke:none;" transform="matrix(1 0 0 1 339 1126)">
   <path d="M0.993654 0L3.63775 0L29.3281-67.1323L30.0303-67.1323L30.0303-70.459L28.1226-70.459ZM11.6885-24.4799L46.9815-24.4799L46.2315-26.7285L12.4385-26.7285ZM55.1196 0L57.7637 0L30.6382-70.459L29.4326-70.459L29.4326-67.1323Z"/>
  </g>
  <line id="Baseline-M" style="fill:none;stroke:#27AAE1;opacity:1;stroke-width:0.5;" x1="263" x2="3036" y1="1126" y2="1126"/>
  <line id="Capline-M" style="fill:none;stroke:#27AAE1;opacity:1;stroke-width:0.5;" x1="263" x2="3036" y1="1055.54" y2="1055.54"/>
  <g id="H-reference" style="fill:#27AAE1;stroke:none;" transform="matrix(1 0 0 1 339 1556)">
   <path d="M0.993654 0L3.63775 0L29.3281-67.1323L30.0303-67.1323L30.0303-70.459L28.1226-70.459ZM11.6885-24.4799L46.9815-24.4799L46.2315-26.7285L12.4385-26.7285ZM55.1196 0L57.7637 0L30.6382-70.459L29.4326-70.459L29.4326-67.1323Z"/>
  </g>
  <line id="Baseline-L" style="fill:none;stroke:#27AAE1;opacity:1;stroke-width:0.5;" x1="263" x2="3036" y1="1556" y2="1556"/>
  <line id="Capline-L" style="fill:none;stroke:#27AAE1;opacity:1;stroke-width:0.5;" x1="263" x2="3036" y1="1485.54" y2="1485.54"/>
  <line id="left-margin-Ultralight-S" style="fill:none;stroke:#00AEEF;stroke-width:0.5;opacity:1.0;" x1="516.35" x2="516.35" y1="600.785" y2="720.121"/>
  <line id="right-margin-Ultralight-S" style="fill:none;stroke:#00AEEF;stroke-width:0.5;opacity:1.0;" x1="603.073" x2="603.073" y1="600.785" y2="720.121"/>
  <line id="left-margin-Regular-S" style="fill:none;stroke:#00AEEF;stroke-width:0.5;opacity:1.0;" x1="1404.51" x2="1404.51" y1="600.785" y2="720.121"/>
  <line id="right-margin-Regular-S" style="fill:none;stroke:#00AEEF;stroke-width:0.5;opacity:1.0;" x1="1495.18" x2="1495.18" y1="600.785" y2="720.121"/>
  <line id="left-margin-Black-S" style="fill:none;stroke:#00AEEF;stroke-width:0.5;opacity:1.0;" x1="2885.5" x2="2885.5" y1="600.785" y2="720.121"/>
  <line id="right-margin-Black-S" style="fill:none;stroke:#00AEEF;stroke-width:0.5;opacity:1.0;" x1="2981.3" x2="2981.3" y1="600.785" y2="720.121"/>
 </g>
 <g id="Symbols">
  <g id="Black-S" transform="matrix(1 0 0 1 2885.5 696)">
   <path class="monochrome-0 multicolor-0:systemOrangeColor hierarchical-0:secondary SFSymbolsPreviewWireframe" d="M77.5415-8.89329C79.1907-8.89329 80.5276-7.55636 80.5276-5.90718C80.5276-4.258 79.1907-2.92107 77.5415-2.92107C75.8923-2.92107 74.5554-4.258 74.5554-5.90718C74.5554-7.55636 75.8923-8.89329 77.5415-8.89329ZM19.0138-8.89329C20.663-8.89329 21.9999-7.55636 21.9999-5.90718C21.9999-4.258 20.663-2.92107 19.0138-2.92107C17.3646-2.92107 16.0277-4.258 16.0277-5.90718C16.0277-7.55636 17.3646-8.89329 19.0138-8.89329ZM77.5415-68.6154C79.1907-68.6154 80.5276-67.2785 80.5276-65.6293C80.5276-63.9801 79.1907-62.6432 77.5415-62.6432C75.8923-62.6432 74.5554-63.9801 74.5554-65.6293C74.5554-67.2785 75.8923-68.6154 77.5415-68.6154ZM19.0138-68.6154C20.663-68.6154 21.9999-67.2785 21.9999-65.6293C21.9999-63.9801 20.663-62.6432 19.0138-62.6432C17.3646-62.6432 16.0277-63.9801 16.0277-65.6293C16.0277-67.2785 17.3646-68.6154 19.0138-68.6154Z"/>
   <path class="monochrome-1 multicolor-1:systemYellowColor hierarchical-1:primary SFSymbolsPreviewWireframe" d="M48.0001-80C49.808-80 51.2077-78.6585 51.5577-76.7339L54.1411-66.3998C55.4442-61.1874 60.726-58.0182 65.9384-59.3213C67.084-59.6076 68.1668-60.0999 69.1344-60.773L69.4526-61.004L69.4526-61.004C70.7477-61.9006 72.3417-61.8342 73.338-60.8379C74.3674-59.8085 74.4006-58.2477 73.504-56.9525C70.3766-52.2885 71.6222-45.9724 76.2862-42.8449C77.2854-42.1749 78.3956-41.6875 79.5652-41.4054L89.059-39.1159C91.1002-38.8826 92.5-37.3663 92.5-35.5C92.5-33.6337 91.1002-32.1173 89.059-31.884L78.6457-29.3471C73.5362-28.1023 70.4032-22.9511 71.648-17.8416C71.9437-16.6277 72.4752-15.485 73.2108-14.4781L73.4376-14.1802L73.4376-14.1802C74.467-12.8851 74.4006-11.2247 73.3379-10.162C72.2753-9.09938 70.6149-9.033 69.3198-10.0624C64.8384-13.1796 58.6785-12.0737 55.5613-7.59234C54.8819-6.61551 54.3844-5.52402 54.0928-4.3704C52.418 2.2553 51.573 5.62342 51.5577 5.73395C51.2077 7.65859 49.808 9 48.0001 9C46.2503 9 44.7923 7.65859 44.4423 5.73395L41.9077-4.15493C40.5289-9.53421 35.0504-12.7773 29.6711-11.3985C28.6811-11.1448 27.7363-10.7417 26.869-10.2039L26.5474-9.99598C25.2523-9.09938 23.6915-9.13261 22.6621-10.162C21.6658-11.1583 21.5994-12.7523 22.496-14.0474C25.5927-18.7026 24.3294-24.9868 19.6742-28.0836C18.7144-28.7221 17.6526-29.192 16.5346-29.473L6.94107-31.884C4.89974-32.1173 3.5-33.6337 3.5-35.5C3.5-37.3663 4.89974-38.8826 6.94107-39.1159L17.1421-41.5762C22.3285-42.827 25.5189-48.0454 24.2681-53.2318C23.9856-54.4029 23.4869-55.5097 22.7988-56.4956L22.5625-56.8197L22.5625-56.8197C21.533-58.1149 21.5994-59.7753 22.662-60.8379C23.7247-61.9006 25.3851-61.967 26.6802-60.9375C31.1573-57.8233 37.3111-58.9282 40.4253-63.4052C41.1051-64.3825 41.6026-65.4747 41.8937-66.629L44.4423-76.7339C44.7923-78.6585 46.2503-80 48.0001-80Z"/>
  </g>
  <g id="Regular-S" transform="matrix(1 0 0 1 1404.51 696)">
   <path class="monochrome-0 multicolor-0:systemOrangeColor hierarchical-0:secondary SFSymbolsPreviewWireframe" d="M70.99-13C72.3707-13 73.49-11.8807 73.49-10.5C73.49-9.11929 72.3707-8 70.99-8C69.6093-8 68.49-9.11929 68.49-10.5C68.49-11.8807 69.6093-13 70.99-13ZM21.99-13C23.3707-13 24.49-11.8807 24.49-10.5C24.49-9.11929 23.3707-8 21.99-8C20.6093-8 19.49-9.11929 19.49-10.5C19.49-11.8807 20.6093-13 21.99-13ZM70.99-63C72.3707-63 73.49-61.8807 73.49-60.5C73.49-59.1193 72.3707-58 70.99-58C69.6093-58 68.49-59.1193 68.49-60.5C68.49-61.8807 69.6093-63 70.99-63ZM21.99-63C23.3707-63 24.49-61.8807 24.49-60.5C24.49-59.1193 23.3707-58 21.99-58C20.6093-58 19.49-59.1193 19.49-60.5C19.49-61.8807 20.6093-63 21.99-63Z"/>
   <path class="monochrome-1 multicolor-1:systemYellowColor hierarchical-1:primary SFSymbolsPreviewWireframe" d="M46.2576-72.5313C47.7712-72.5313 48.9431-71.4082 49.2361-69.7969L51.399-61.145C52.4899-56.7812 56.9119-54.1279 61.2758-55.2188C62.223-55.4556 63.119-55.8606 63.9214-56.4134L64.2178-56.6276L64.2178-56.6276C65.3021-57.3783 66.6367-57.3227 67.4708-56.4886C68.3326-55.6268 68.3604-54.32 67.6098-53.2357C64.9914-49.331 66.0343-44.043 69.939-41.4247C70.7756-40.8637 71.7051-40.4557 72.6843-40.2195L80.6326-38.3027C82.3415-38.1074 83.5134-36.8379 83.5134-35.2754C83.5134-33.7129 82.3415-32.4434 80.6326-32.2481L71.9144-30.1241C67.6367-29.082 65.0137-24.7693 66.0559-20.4916C66.301-19.4855 66.7395-18.5378 67.3459-17.701L67.5541-17.4262L67.5541-17.4262C68.416-16.342 68.3604-14.9519 67.4707-14.0622C66.581-13.1725 65.1909-13.117 64.1067-13.9788C60.3548-16.5886 55.1977-15.6627 52.588-11.9108C52.0191-11.093 51.6026-10.1792 51.3585-9.21339C49.9563-3.66628 49.2489-0.846458 49.2361-0.753922C48.9431 0.857406 47.7712 1.98045 46.2576 1.98045C44.7927 1.98045 43.572 0.857406 43.279-0.753922L41.157-9.033C40.0027-13.5366 35.416-16.2517 30.9125-15.0974C30.0965-14.8883 29.3173-14.5581 28.6005-14.1183L28.2972-13.9232C27.2129-13.1725 25.9062-13.2004 25.0444-14.0622C24.2103-14.8963 24.1547-16.2308 24.9053-17.3151C27.498-21.2125 26.4403-26.4737 22.5429-29.0664C21.7393-29.6009 20.8504-29.9943 19.9144-30.2295L11.8826-32.2481C10.1736-32.4434 9.0017-33.7129 9.0017-35.2754C9.0017-36.8379 10.1736-38.1074 11.8826-38.3027L20.423-40.3625C24.7651-41.4097 27.4362-45.7786 26.389-50.1207C26.1554-51.089 25.7452-52.0049 25.1801-52.8226L24.961-53.1245L24.961-53.1245C24.0991-54.2088 24.1547-55.5989 25.0443-56.4886C25.934-57.3783 27.3241-57.4339 28.4084-56.572C32.1566-53.9648 37.3087-54.8897 39.9159-58.638C40.4851-59.4562 40.9015-60.3705 41.1453-61.3369L43.279-69.7969C43.572-71.4082 44.7927-72.5313 46.2576-72.5313Z"/>
  </g>
  <g id="Ultralight-S" transform="matrix(1 0 0 1 516.35 696)">
   <path class="monochrome-0 multicolor-0:systemOrangeColor hierarchical-0:secondary SFSymbolsPreviewWireframe" d="M62.7965-16.0629C63.8933-16.0629 64.7824-15.1616 64.7824-14.0498C64.7824-12.938 63.8933-12.0367 62.7965-12.0367C61.6997-12.0367 60.8106-12.938 60.8106-14.0498C60.8106-15.1616 61.6997-16.0629 62.7965-16.0629ZM23.8728-16.0629C24.9696-16.0629 25.8587-15.1616 25.8587-14.0498C25.8587-12.938 24.9696-12.0367 23.8728-12.0367C22.776-12.0367 21.8869-12.938 21.8869-14.0498C21.8869-15.1616 22.776-16.0629 23.8728-16.0629ZM62.7965-56.325C63.8933-56.325 64.7824-55.4237 64.7824-54.3119C64.7824-53.2001 63.8933-52.2988 62.7965-52.2988C61.6997-52.2988 60.8106-53.2001 60.8106-54.3119C60.8106-55.4237 61.6997-56.325 62.7965-56.325ZM23.8728-56.325C24.9696-56.325 25.8587-55.4237 25.8587-54.3119C25.8587-53.2001 24.9696-52.2988 23.8728-52.2988C22.776-52.2988 21.8869-53.2001 21.8869-54.3119C21.8869-55.4237 22.776-56.325 23.8728-56.325Z"/>
   <path class="monochrome-1 multicolor-1:systemYellowColor hierarchical-1:primary SFSymbolsPreviewWireframe" d="M43.15-70C44.3524-70 45.2833-69.0956 45.516-67.7981L47.8296-54.904C48.4165-51.6329 51.5441-49.4569 54.8152-50.0438C55.6567-50.1948 56.4551-50.5232 57.158-51.0056L57.417-51.1937L57.417-51.1937C58.2783-51.7981 59.3384-51.7534 60.001-51.0817C60.6856-50.3878 60.7076-49.3355 60.1114-48.4624C58.1661-45.5217 58.9731-41.5608 61.9138-39.6156C62.6549-39.1254 63.4903-38.7952 64.3663-38.6463L77.3616-36.4377C78.7191-36.2804 79.65-35.2582 79.65-34C79.65-32.7418 78.7191-31.7195 77.3616-31.5623L63.7711-29.2235C60.5097-28.6623 58.3208-25.5634 58.8821-22.3021C59.0332-21.4238 59.3781-20.5915 59.8903-19.8652L60.0672-19.6271L60.0672-19.6271C60.7518-18.754 60.7076-17.6346 60.0009-16.9182C59.2942-16.2018 58.1899-16.1571 57.3287-16.8511C54.5547-18.8071 50.7202-18.1439 48.7642-15.3699C48.2592-14.6538 47.9133-13.8379 47.7495-12.977C46.2722-5.21276 45.5277-1.2877 45.516-1.20183C45.2833 0.0956777 44.3524 1 43.15 1C41.9864 1 41.0167 0.0956777 40.784-1.20183L38.5449-12.8285C37.8923-16.2174 34.6159-18.4357 31.2269-17.783C30.492-17.6415 29.7893-17.3693 29.1521-16.9802L28.883-16.8063C28.0217-16.2018 26.9837-16.2242 26.2991-16.9182C25.6365-17.5899 25.5923-18.6645 26.1886-19.5376C28.109-22.464 27.2935-26.3931 24.3671-28.3135C23.6478-28.7856 22.8399-29.1062 21.9926-29.2559L8.93847-31.5623C7.5809-31.7195 6.65-32.7418 6.65-34C6.65-35.2582 7.5809-36.2804 8.93847-36.4377L22.3895-38.724C25.7009-39.2869 27.929-42.4275 27.3662-45.7389C27.2218-46.5885 26.8987-47.3964 26.4197-48.1098L26.2328-48.3728L26.2328-48.3728C25.5482-49.246 25.5923-50.3653 26.2991-51.0817C27.0058-51.7981 28.11-51.8429 28.9714-51.1489C31.7191-49.2114 35.5171-49.8683 37.4546-52.616C37.9649-53.3397 38.3112-54.1661 38.4692-55.0375L40.784-67.7981C41.0167-69.0956 41.9864-70 43.15-70Z"/>
  </g>
 </g>
</svg>
